<svg width="9" height="10" viewBox="0 0 9 10" fill="none" xmlns="http://www.w3.org/2000/svg">
    <path d="M8.80065 1.07431C8.7375 1.01148 8.66249 0.961639 8.5799 0.927632C8.49732 0.893624 8.4088 0.876119 8.31939 0.876119C8.22999 0.876119 8.14146 0.893624 8.05888 0.927632C7.9763 0.961639 7.90128 1.01148 7.83813 1.07431L4.5 4.38147L1.16187 1.06753C1.09867 1.00479 1.02364 0.955018 0.941068 0.921062C0.858492 0.887106 0.769989 0.869629 0.68061 0.869629C0.591231 0.869629 0.502727 0.887106 0.420152 0.921062C0.337576 0.955018 0.262546 1.00479 0.199346 1.06753C0.136145 1.13027 0.086012 1.20476 0.0518081 1.28674C0.0176043 1.36871 -6.65925e-10 1.45658 0 1.54531C6.65925e-10 1.63404 0.0176043 1.7219 0.0518081 1.80388C0.086012 1.88585 0.136145 1.96034 0.199346 2.02308L3.53747 5.33702L0.199346 8.65096C0.136145 8.7137 0.086012 8.78819 0.0518081 8.87016C0.0176043 8.95214 0 9.04 0 9.12873C0 9.21746 0.0176043 9.30533 0.0518081 9.3873C0.086012 9.46928 0.136145 9.54377 0.199346 9.60651C0.262546 9.66925 0.337576 9.71902 0.420152 9.75298C0.502727 9.78693 0.591231 9.80441 0.68061 9.80441C0.769989 9.80441 0.858492 9.78693 0.941068 9.75298C1.02364 9.71902 1.09867 9.66925 1.16187 9.60651L4.5 6.29257L7.83813 9.60651C7.90133 9.66925 7.97636 9.71902 8.05893 9.75298C8.14151 9.78693 8.23001 9.80441 8.31939 9.80441C8.40877 9.80441 8.49727 9.78693 8.57985 9.75298C8.66243 9.71902 8.73745 9.66925 8.80065 9.60651C8.86385 9.54377 8.91399 9.46928 8.94819 9.3873C8.9824 9.30533 9 9.21746 9 9.12873C9 9.04 8.9824 8.95214 8.94819 8.87016C8.91399 8.78819 8.86385 8.7137 8.80065 8.65096L5.46253 5.33702L8.80065 2.02308C9.06006 1.76556 9.06006 1.33183 8.80065 1.07431Z" fill="#D41B2C"/>
</svg>
