<svg width="9" height="9" viewBox="0 0 9 9" fill="none" xmlns="http://www.w3.org/2000/svg">
    <path d="M8.80065 0.204678C8.7375 0.141853 8.66249 0.0920105 8.5799 0.0580027C8.49732 0.0239949 8.4088 0.00648984 8.31939 0.00648984C8.22999 0.00648984 8.14146 0.0239949 8.05888 0.0580027C7.9763 0.0920105 7.90128 0.141853 7.83813 0.204678L4.5 3.51184L1.16187 0.197901C1.09867 0.135159 1.02364 0.0853887 0.941068 0.0514327C0.858492 0.0174767 0.769989 6.61099e-10 0.68061 0C0.591231 -6.611e-10 0.502727 0.0174767 0.420152 0.0514327C0.337576 0.0853887 0.262546 0.135159 0.199346 0.197901C0.136145 0.260644 0.086012 0.33513 0.0518081 0.417107C0.0176043 0.499084 -6.65925e-10 0.586946 0 0.675678C6.65925e-10 0.764409 0.0176043 0.852271 0.0518081 0.934248C0.086012 1.01623 0.136145 1.09071 0.199346 1.15345L3.53747 4.46739L0.199346 7.78133C0.136145 7.84407 0.086012 7.91856 0.0518081 8.00053C0.0176043 8.08251 0 8.17037 0 8.2591C0 8.34783 0.0176043 8.4357 0.0518081 8.51767C0.086012 8.59965 0.136145 8.67414 0.199346 8.73688C0.262546 8.79962 0.337576 8.84939 0.420152 8.88335C0.502727 8.9173 0.591231 8.93478 0.68061 8.93478C0.769989 8.93478 0.858492 8.9173 0.941068 8.88335C1.02364 8.84939 1.09867 8.79962 1.16187 8.73688L4.5 5.42294L7.83813 8.73688C7.90133 8.79962 7.97636 8.84939 8.05893 8.88335C8.14151 8.9173 8.23001 8.93478 8.31939 8.93478C8.40877 8.93478 8.49727 8.9173 8.57985 8.88335C8.66243 8.84939 8.73745 8.79962 8.80065 8.73688C8.86385 8.67414 8.91399 8.59965 8.94819 8.51767C8.9824 8.4357 9 8.34783 9 8.2591C9 8.17037 8.9824 8.08251 8.94819 8.00053C8.91399 7.91856 8.86385 7.84407 8.80065 7.78133L5.46253 4.46739L8.80065 1.15345C9.06006 0.895929 9.06006 0.462203 8.80065 0.204678Z" fill="#646872"/>
</svg>
